<?xml version="1.0" encoding="utf-8"?>
<svg viewBox="120.3016 88.0488 277.4312 308.0303" width="277.431" height="308.03" xmlns="http://www.w3.org/2000/svg">
  <g style="" transform="matrix(1, 0, 0, 1, 1.4210854715202004e-14, 0)">
    <title>COCHE</title>
    <g style="" transform="matrix(0.652648, 0, 0, 0.652648, 163.272266, 118.280749)">
      <title>Antena</title>
      <g>
        <title>Cuerpo</title>
        <path d="M 323.54 57.402 C 307.727 99.875 284.25 117.458 249.281 117.367 C 214.312 117.276 187.694 85.861 179.294 58.446 C 209.193 66.247 210.667 65.802 251.19 65.802 C 291.713 65.802 251.157 64.157 323.54 57.402" style="stroke: rgb(0, 0, 0); stroke-opacity: 0; fill: rgb(90, 82, 130);" transform="matrix(0.708951, 0.705258, -0.705259, 0.70895, 107.541111, -146.470266)"/>
        <path d="M 193.432 22.404 C 201.242 45.094 218.372 63.784 235.182 81.654 C 253.762 97.884 271.642 118.814 296.432 122.404 C 308.051 111.16 279.092 79.744 272.432 73.404 C 272.112 74.13 258.534 56.656 257.806 57.11 C 257.261 57.451 254.344 60.503 254.28 61.252 C 265.01 73.432 298.263 117.817 294.432 119.404 C 290.602 120.972 241.792 84.767 233.432 74.404 C 221.092 57.674 202.352 42.824 199.432 21.404 C 215.792 24.904 241.356 51.202 254.436 61.312 C 255.446 60.762 257.36 58.178 257.92 57.158 C 250.97 50.538 230.9 34.303 220.512 26.324 C 211.744 19.589 194.97 9.597 193.432 22.404 Z" style="fill: rgb(156, 154, 188);">
          <title>Filo</title>
        </path>
        <path d="M 238.323 79.463 C 272.956 112.344 290.567 120.952 294.724 119.367 C 299.634 115.413 287.645 95.905 270.671 76.868 C 258.793 63.546 251.239 56.374 241.297 47.225 C 218.65 26.385 200.841 20.5 198.958 21.524 C 195.44 25.183 209.486 52.085 238.323 79.463 Z" style="fill: rgb(193, 193, 229);">
          <title>Dentro</title>
        </path>
        <path d="M 278.544 124.052 C 270.514 120.942 263.208 116.015 256.182 110.654 C 248.295 104.636 242.361 97.75 236.662 101.634 C 228.764 107.016 220.334 112.695 210.604 112.125 C 225.444 131.185 257.064 131.932 278.544 124.052 Z" style="fill: rgb(71, 66, 102);">
          <title>Sombra</title>
        </path>
        <path d="M 242.038 83.333 C 244.697 80.883 249.834 73.815 251.184 71.085 C 248.064 68.427 247.439 66.878 244.909 64.688 C 242.349 66.788 234.255 72.23 233.575 75.63 C 236.335 77.819 238.498 80.791 242.038 83.333 Z" style="fill: rgb(90, 82, 130);">
          <title>Cuello Bola</title>
        </path>
        <rect x="27.708" y="162.151" width="220.746" height="25.747" style="stroke: rgb(0, 0, 0); fill: rgb(90, 82, 130); stroke-opacity: 0;" rx="12.873" ry="12.873">
          <title>Base</title>
        </rect>
        <g>
          <title>MiniAntena</title>
          <rect x="60.993" y="140.254" width="12.713" height="21.897" style="stroke: rgb(0, 0, 0); fill: rgb(90, 82, 130); stroke-opacity: 0;" rx="0.702" ry="0.702">
            <title>MiniAntena</title>
          </rect>
          <rect x="63.79" y="91.991" width="7.628" height="49.881" style="stroke: rgb(0, 0, 0); fill: rgb(90, 82, 130); stroke-opacity: 0;" rx="0.918" ry="0.918"/>
        </g>
        <g>
          <title>Cuello</title>
          <ellipse style="stroke: rgb(0, 0, 0); fill: rgb(193, 193, 229); stroke-opacity: 0;" cx="191.848" cy="127.14" rx="6.795" ry="6.795"/>
          <rect x="185.053" y="133.935" width="9.553" height="28.216" style="stroke: rgb(0, 0, 0); fill: rgb(90, 82, 130); stroke-opacity: 0;" rx="0.702" ry="0.702">
            <title>Cuello 1</title>
          </rect>
          <rect x="198.794" width="9.553" height="28.216" style="stroke: rgb(0, 0, 0); fill: rgb(90, 82, 130); stroke-opacity: 0;" rx="0.702" ry="0.702" y="105.719" transform="matrix(0.747499, 0.664263, -0.664264, 0.747498, 128.796479, -110.896736)">
            <title>Cuello 2</title>
          </rect>
          <ellipse style="stroke: rgb(0, 0, 0); stroke-opacity: 0; fill: rgb(90, 82, 130);" cx="191.204" cy="127.184" rx="9.675" ry="9.675"/>
        </g>
      </g>
      <g>
        <title>Bola</title>
        <g fill="#F7241D" fill-opacity="1.00" stroke="None" transform="matrix(1.102287, 0, 0, 1.102287, -332.509651, -79.267946)" style="">
          <path d="M 540 106 C 516.95 102.24 511.98 137.91 534.33 141.67 C 557.44 146.2 562.13 108.84 540 106 Z"/>
        </g>
        <g fill="#FD8924" fill-opacity="1.00" stroke="None" transform="matrix(1, 0, 0, 1, -277.568091, -66.595911)">
          <path d="M 535.919 109.71 C 526.999 106.015 519.904 120.808 530.008 124.993 C 540.112 129.178 544.839 113.405 535.919 109.71 Z" style=""/>
        </g>
      </g>
    </g>
    <g style="" transform="matrix(0.652648, 0, 0, 0.652648, 163.272266, 118.280749)">
      <title>Chasis</title>
      <path d="M 215.294 172.725 C 257.378 172.725 272.657 173.725 289.294 173.725 C 455.941 171.97 518.81 171.97 471.12 208.442 C 490.43 247.649 432.098 254.212 444.941 281.534 C 457.407 308.053 431.874 308.041 321.768 308.041 C 211.662 308.041 230.592 315.716 196.618 281.742 C 162.644 247.768 164.546 256.729 163.369 227.21 C 163.693 196.569 161.002 202.935 170.304 193.036 C 191.384 170.583 184.083 172.725 215.294 172.725 Z" style="fill: rgb(202, 219, 228);" transform="matrix(-1, 0, 0, -1, 496.938748, 479.746226)">
        <title>Lateral</title>
      </path>
      <path d="M 261.32 181.621 C 243.32 181.621 216.282 182.319 198.282 182.227 C 182.193 182.145 169.432 181.44 169.432 198.404 C 169.432 216.585 168.649 233.734 168.649 251.404 C 168.649 263.847 175.06 271.892 179.197 275.478 C 185.911 281.297 186.989 283.418 208.845 283.553 C 223.72 283.644 271.218 282.748 278.413 282.817 C 314.98 283.17 310.386 244.8 309.933 227.421 C 298.118 215.606 297.974 216.087 288.806 206.919 C 280.005 198.118 270.49 189.681 261.32 181.621 Z M 259.432 184.963 C 276.226 199.833 293.705 217.182 306.182 229.654 C 306.683 244.648 311.879 278.793 278.245 278.733 C 244.605 278.673 224.3 279.681 208.97 279.681 C 195.582 279.681 189.353 279.546 182.04 272.233 C 172.854 263.047 172.432 254.203 172.432 251.147 C 172.432 236.185 173.379 215.518 173.379 197.964 C 173.379 184.381 184.81 185.487 198.1 185.487 C 213.43 185.487 244.102 184.963 259.432 184.963 Z" style="fill: rgb(158, 194, 214);">
        <title>Chapa</title>
      </path>
      <path d="M -15.79 306.847 C -15.79 309.547 -15.216 311.371 -10.568 318.404 C -5.92 325.437 0.417 338.864 9.557 342.404 C 59.327 341.634 143.396 340.404 183.396 340.404 C 223.396 340.404 279.724 325.404 285.432 318.404 C 287.042 315.154 288.887 310.722 289.877 307.292 C 189.347 305.622 84.81 305.177 -15.79 306.847 Z" style="fill: rgb(90, 82, 130);">
        <title>Debajo</title>
      </path>
      <path d="M -16.568 307.404 C 25.516 307.404 40.795 306.404 57.432 306.404 C 51.18 296.474 40.989 280.268 40.989 274.516 C 40.989 268.764 49.387 255.341 62.23 228.019 C 74.696 201.5 78.507 192.85 90.432 172.404 C 65.983 172.345 48.95 172.529 28.512 172.529 C 8.074 172.529 -8.109 171.136 -10.798 176.174 C -25.662 204.025 -34.082 219.31 -54.221 261.081 C -60.673 274.462 -55.488 282.348 -50.093 295.373 C -43.589 311.075 -22.351 307.404 -16.568 307.404 Z" style="fill: rgb(158, 194, 214);">
        <title>FRONTAL</title>
      </path>
      <g>
        <title>Tornillos</title>
        <ellipse style="stroke: rgb(0, 0, 0); fill: rgb(159, 198, 220); stroke-opacity: 0;" cx="182.434" cy="194.308" rx="2.743" ry="2.743"/>
        <ellipse style="stroke: rgb(0, 0, 0); fill: rgb(159, 198, 220); stroke-opacity: 0;" cx="256.034" cy="194.485" rx="2.743" ry="2.743"/>
        <ellipse style="stroke: rgb(0, 0, 0); fill: rgb(159, 198, 220); stroke-opacity: 0;" cx="297.578" cy="234.198" rx="2.743" ry="2.743"/>
        <ellipse style="stroke: rgb(0, 0, 0); fill: rgb(159, 198, 220); stroke-opacity: 0;" cx="297.065" cy="257.136" rx="2.743" ry="2.743"/>
        <ellipse style="stroke: rgb(0, 0, 0); fill: rgb(159, 198, 220); stroke-opacity: 0;" cx="191.956" cy="268.561" rx="2.743" ry="2.743"/>
        <ellipse style="stroke: rgb(0, 0, 0); fill: rgb(159, 198, 220); stroke-opacity: 0;" cx="181.816" cy="257.717" rx="2.743" ry="2.743"/>
      </g>
      <g>
        <title>Detalles Chasis</title>
        <g transform="matrix(1, 0, 0, 1, -277.567999, -66.596002)">
          <title>Lineas Horizontales</title>
          <path d="M 487.428 288.729 C 487.428 284.57 482.796 284.59 482.796 289.009 C 482.796 319.18 482.718 404.922 482.718 431.463 C 482.718 437.845 487.916 438.026 487.916 432.068 C 487.916 396.113 487.428 321.387 487.428 288.729 Z" style="fill: rgb(158, 194, 214);" transform="matrix(0, 0.999998, -1.000002, 0, 846.342212, -124.29151)"/>
          <path d="M 424.475 317.002 C 424.475 312.843 419.843 312.863 419.843 317.282 C 419.843 347.453 419.945 360.98 419.945 387.521 C 419.945 393.903 425.143 394.084 425.143 388.126 C 425.143 352.171 424.475 349.66 424.475 317.002 Z" style="fill: rgb(158, 194, 214);" transform="matrix(0, 0.999998, -1.000002, 0, 739.627642, -105.460141)"/>
        </g>
        <g fill="#4AB698" fill-opacity="1.00" stroke="None" transform="matrix(1, 0, 0, 1, -277.568085, -66.595909)">
          <title>Lineas Vertical verdes</title>
          <path d="M 360.593 332.273 C 360.593 328.467 355.781 328.668 355.781 332.801 C 355.781 338.877 355.613 351.103 355.703 356.448 C 355.802 362.296 360.792 362.4 360.901 356.57 C 361.036 349.329 360.593 338.85 360.593 332.273 Z"/>
          <path d="M 371.152 332.228 C 371.152 328.422 366.34 328.623 366.34 332.756 C 366.34 338.832 366.172 351.058 366.262 356.403 C 366.361 362.251 371.351 362.355 371.46 356.525 C 371.595 349.284 371.152 338.805 371.152 332.228 Z"/>
          <path d="M 381.828 332.031 C 381.828 328.225 377.016 328.426 377.016 332.559 C 377.016 338.635 376.848 350.861 376.938 356.206 C 377.037 362.054 382.027 362.158 382.136 356.328 C 382.271 349.087 381.828 338.608 381.828 332.031 Z"/>
          <path d="M 391.714 332.229 C 391.714 328.423 386.902 328.624 386.902 332.757 C 386.902 338.833 386.734 351.059 386.824 356.404 C 386.923 362.252 391.913 362.356 392.022 356.526 C 392.157 349.285 391.714 338.806 391.714 332.229 Z"/>
          <path d="M 350.293 332.822 C 350.293 329.016 345.481 329.217 345.481 333.35 C 345.481 339.426 345.313 351.652 345.403 356.997 C 345.502 362.845 350.492 362.949 350.601 357.119 C 350.736 349.878 350.293 339.399 350.293 332.822 Z"/>
        </g>
        <g transform="matrix(0, 0.795564, -0.795564, 0, 521.65559, 80.224596)">
          <title>Lineas Horizontals verdes</title>
          <path d="M 247.404 246.561 C 247.404 242.755 241.767 242.956 241.767 247.089 C 241.767 253.165 241.691 260.533 241.781 265.878 C 241.88 271.726 247.695 271.83 247.804 266 C 247.939 258.759 247.404 253.138 247.404 246.561 Z" style="fill: rgb(74, 177, 148);"/>
          <path d="M 256.303 254.661 C 256.303 250.855 250.666 251.056 250.666 255.189 C 250.666 261.265 250.59 268.633 250.68 273.978 C 250.779 279.826 256.594 279.93 256.703 274.1 C 256.838 266.859 256.303 261.238 256.303 254.661 Z" style="fill: rgb(74, 177, 148);"/>
          <path d="M 265.269 263.627 C 265.269 259.821 259.632 260.022 259.632 264.155 C 259.632 270.231 259.556 277.599 259.646 282.944 C 259.745 288.792 265.56 288.896 265.669 283.066 C 265.804 275.825 265.269 270.204 265.269 263.627 Z" style="fill: rgb(74, 177, 148);"/>
        </g>
        <ellipse style="paint-order: fill; fill: rgb(74, 182, 152); stroke: rgb(0, 0, 0); stroke-opacity: 0;" cx="135.629" cy="269.931" rx="11.913" ry="7.345">
          <title>Boton Puerta</title>
        </ellipse>
      </g>
    </g>
    <g transform="matrix(0.652648, 0, 0, 0.652648, -17.88192, 74.817003)" style="">
      <title>Ventana</title>
      <path d="M 421 249 C 406 249.01 391.01 249.01 376.01 249.01 C 367.334 249.01 363.594 260.655 356.694 276.147 C 351.55 287.698 343.97 298.98 356.93 305.07 C 371.13 307.21 386.378 306 401 306 C 416.247 306 427 307.103 427 287 C 427 272.911 431.538 248.788 421 249 Z" style="fill: rgb(52, 39, 68);"/>
      <path d="M 410.389 261 C 397.82 259.14 390.211 267.733 382.694 275.25 C 376.134 281.81 369.203 287.423 361.861 293.139 C 373.095 298.088 382.198 286.345 389.139 279.889 C 397.098 272.486 400.085 269.851 410.389 261 Z" style="fill: rgb(115, 109, 149);"/>
    </g>
    <g style="" transform="matrix(0.652648, 0, 0, 0.652648, 163.272266, 118.280749)">
      <title>Ventana Frontal</title>
      <g fill="#342744" fill-opacity="1.00" stroke="None" transform="matrix(1, 0, 0, 1, -277.568085, -66.595909)">
        <path d="M 230.523 332.532 C 232.455 337.205 256.2 335.378 279.33 335.378 C 302.46 335.378 297.805 334.915 309.523 334.691 C 324.454 306.618 339.576 275.715 353.359 247.379 C 313.67 247.209 272.311 246.17 269.142 251.94 C 252.19 282.809 228.053 326.556 230.523 332.532 Z"/>
      </g>
      <g fill="#736D95" fill-opacity="1.00" stroke="None" transform="matrix(1, 0, 0, 1, -277.568085, -66.595909)">
        <path d="M 329 262 C 320.327 258.274 311.162 268.789 299.223 278.793 C 281.946 293.27 266.61 305.755 247 323 C 255.233 325.538 265.609 313.536 276.75 304.75 C 294.43 290.808 310.987 277.085 329 262 Z"/>
      </g>
      <g fill="#736D95" fill-opacity="1.00" stroke="None" transform="matrix(1, 0, 0, 1, -277.568085, -66.595909)">
        <path d="M 329 282 C 321.368 279.061 310.685 289.976 302.75 296.75 C 294.815 303.524 293.741 304.115 280.081 316 C 289.755 317.478 298.453 307.515 306.77 300.77 C 315.087 294.025 315.108 294.081 329 282 Z"/>
      </g>
    </g>
    <g style="" transform="matrix(0.652648, 0, 0, 0.652648, 163.272266, 118.280749)">
      <title>BRILLO</title>
      <ellipse style="stroke: rgb(0, 0, 0); stroke-opacity: 0; fill: rgba(197, 148, 119, 0.675);" cx="-37.621" cy="288.187" rx="9.476" ry="9.228"/>
      <ellipse style="stroke: rgb(0, 0, 0); stroke-opacity: 0; fill: rgba(197, 148, 119, 0.675);" cx="-24.693" cy="287.874" rx="9.476" ry="9.228"/>
      <ellipse style="stroke: rgb(0, 0, 0); stroke-opacity: 0; fill: rgba(197, 148, 119, 0.675);" cx="3.468" cy="287.586" rx="9.476" ry="9.228"/>
      <ellipse style="stroke: rgb(0, 0, 0); stroke-opacity: 0; fill: rgba(197, 148, 119, 0.675);" cx="18.566" cy="287.586" rx="9.476" ry="9.228"/>
      <g style="" transform="matrix(4.442365, 0, 0, 1, 33.128113, 0)">
        <title>Parachoques</title>
        <g fill="#636F8D" fill-opacity="1.00" stroke="None" transform="matrix(1, 0, 0, 1, -277.568091, -66.595911)">
          <path d="&#10;M 261.00 349.00 &#10;C 261.50 349.00 262.00 349.00 262.00 349.00&#10;C 266.00 349.00 270.00 349.00 274.00 349.00&#10;C 274.50 349.00 275.00 349.00 275.00 349.00&#10;C 275.00 349.00 274.78 348.13 275.00 348.00&#10;C 270.33 348.00 265.67 348.00 261.00 348.00&#10;C 261.00 348.00 260.75 348.75 261.00 349.00 Z" style=""/>
        </g>
        <g fill="#312542" fill-opacity="1.00" stroke="None" transform="matrix(1, 0, 0, 1, -277.568091, -66.595911)">
          <path d="&#10;M 262.00 360.00 &#10;C 266.00 360.00 270.00 360.00 274.00 360.00&#10;C 272.40 356.79 272.47 352.21 274.00 349.00&#10;C 270.00 349.00 266.00 349.00 262.00 349.00&#10;C 264.27 352.40 262.32 356.46 262.00 360.00 Z" style=""/>
        </g>
        <g fill="#4A6178" fill-opacity="1.00" stroke="None" transform="matrix(1, 0, 0, 1, -277.568091, -66.595911)">
          <path d="&#10;M 261.00 361.00 &#10;C 265.67 361.00 270.33 361.00 275.00 361.00&#10;C 275.00 361.00 275.00 360.50 275.00 360.00&#10;C 275.00 360.00 274.50 360.00 274.00 360.00&#10;C 270.00 360.00 266.00 360.00 262.00 360.00&#10;C 262.00 360.00 261.25 359.75 261.00 360.00&#10;C 261.00 360.00 261.25 360.78 261.00 361.00 Z" style=""/>
        </g>
      </g>
    </g>
    <g style="" transform="matrix(0.652648, 0, 0, 0.652648, 163.272266, 118.280749)">
      <title>FAROS</title>
      <g transform="matrix(1, 0, 0, 1, -12.927877, 0.312809)">
        <ellipse style="stroke-opacity: 0; stroke: rgb(231, 127, 66); fill: rgb(208, 74, 42);" cx="-24.251" cy="287.643" rx="7.671" ry="7.563"/>
        <ellipse style="stroke-opacity: 0; stroke: rgb(231, 127, 66); fill: rgb(239, 123, 58);" cx="-25.825" cy="287.791" rx="5.996" ry="7.38"/>
        <ellipse style="stroke: rgb(0, 0, 0); fill: rgb(252, 157, 36); stroke-opacity: 0;" cx="-26.146" cy="287.826" rx="3.57" ry="4.394"/>
      </g>
      <g>
        <ellipse style="stroke-opacity: 0; stroke: rgb(231, 127, 66); fill: rgb(208, 74, 42);" cx="-24.251" cy="287.643" rx="7.671" ry="7.563"/>
        <ellipse style="stroke-opacity: 0; stroke: rgb(231, 127, 66); fill: rgb(239, 123, 58);" cx="-25.825" cy="287.791" rx="5.996" ry="7.38"/>
        <ellipse style="stroke: rgb(0, 0, 0); fill: rgb(252, 157, 36); stroke-opacity: 0;" cx="-26.146" cy="287.826" rx="3.57" ry="4.394"/>
      </g>
      <g transform="matrix(1, 0, 0, 1, 28.160998, -0.288125)">
        <ellipse style="stroke-opacity: 0; stroke: rgb(231, 127, 66); fill: rgb(208, 74, 42);" cx="-24.251" cy="287.643" rx="7.671" ry="7.563"/>
        <ellipse style="stroke-opacity: 0; stroke: rgb(231, 127, 66); fill: rgb(239, 123, 58);" cx="-25.825" cy="287.791" rx="5.996" ry="7.38"/>
        <ellipse style="stroke: rgb(0, 0, 0); fill: rgb(252, 157, 36); stroke-opacity: 0;" cx="-26.146" cy="287.826" rx="3.57" ry="4.394"/>
      </g>
      <g transform="matrix(1, 0, 0, 1, 43.259469, -0.288126)">
        <ellipse style="stroke-opacity: 0; stroke: rgb(231, 127, 66); fill: rgb(208, 74, 42);" cx="-24.251" cy="287.643" rx="7.671" ry="7.563"/>
        <ellipse style="stroke-opacity: 0; stroke: rgb(231, 127, 66); fill: rgb(239, 123, 58);" cx="-25.825" cy="287.791" rx="5.996" ry="7.38"/>
        <ellipse style="stroke: rgb(0, 0, 0); fill: rgb(252, 157, 36); stroke-opacity: 0;" cx="-26.146" cy="287.826" rx="3.57" ry="4.394"/>
      </g>
    </g>
    <g style="" transform="matrix(0.652648, 0, 0, 0.652648, 163.272266, 118.280749)">
      <title>Ruedas</title>
      <g transform="matrix(1, 0, 0, 1, -164.30344, -0.132172)">
        <title>Rueda FR</title>
        <path d="M 236.676 369.229 C 236.676 371.925 232.345 405.083 200.817 419.738 C 190.556 424.508 164.269 424.648 151.585 424.648 C 122.247 424.648 98.463 400.864 98.463 371.526 C 98.463 342.188 122.25 318.858 151.585 318.404 C 158.502 318.297 183.736 317.404 189.685 317.404 C 202.844 317.404 236.676 343.035 236.676 369.229 Z" style="stroke: rgb(0, 0, 0); stroke-opacity: 0; fill: rgb(65, 49, 84);"/>
        <ellipse style="stroke: rgb(0, 0, 0); stroke-opacity: 0; fill: rgb(41, 32, 54);" cx="183.554" cy="370.526" rx="53.122" ry="53.122"/>
        <rect x="174.347" y="361.09" width="56.573" height="20.63" style="stroke: rgb(0, 0, 0); stroke-opacity: 0; fill: rgb(135, 132, 167);" rx="10.315" ry="10.315"/>
        <g transform="matrix(1, 0, 0, 0.978593, -96.969004, 7.843157)" style="">
          <title>Lineas Neumatico</title>
          <path style="stroke: rgb(0, 0, 0); stroke-opacity: 0; fill: rgb(41, 32, 54);" d="M 216.132 328.66 L 252.888 329.404 L 263.629 322.35 C 263.629 322.35 238.249 322.186 228.249 322.186 C 224.15 322.186 216.132 328.66 216.132 328.66 Z"/>
          <path style="stroke: rgb(0, 0, 0); stroke-opacity: 0; fill: rgb(41, 32, 54);" d="M 204.432 340.978 L 241.432 341.443 L 249.37 335.334 C 249.37 335.334 219.961 334.061 209.961 334.061 C 206.994 336.388 204.432 340.978 204.432 340.978 Z"/>
          <path style="stroke: rgb(0, 0, 0); stroke-opacity: 0; fill: rgb(41, 32, 54);" d="M 197.629 356.027 L 237.824 356.539 L 239.615 349.553 C 239.615 349.553 210.432 348.865 200.432 348.865 C 197.917 353.028 197.629 356.027 197.629 356.027 Z"/>
          <path style="stroke: rgb(0, 0, 0); stroke-opacity: 0; fill: rgb(41, 32, 54);" d="M 195.432 367.647 L 235.496 368.404 L 236.432 361.091 C 236.432 361.091 206.339 360.73 196.339 360.73 C 195.432 365.404 195.432 367.647 195.432 367.647 Z"/>
          <path style="stroke: rgb(0, 0, 0); stroke-opacity: 0; fill: rgb(41, 32, 54);" d="M 196.117 380.404 L 237.541 381.426 L 238.525 374.113 C 238.525 374.113 205.943 373.752 195.432 373.752 C 195.432 378.672 196.117 380.404 196.117 380.404 Z"/>
          <path style="stroke: rgb(0, 0, 0); stroke-opacity: 0; fill: rgb(41, 32, 54);" d="M 200.432 394.458 L 239.706 395.048 L 240.69 387.735 C 240.69 387.735 208.231 387.374 197.72 387.374 C 199.136 392.356 200.432 394.458 200.432 394.458 Z"/>
          <path style="stroke: rgb(0, 0, 0); stroke-opacity: 0; fill: rgb(41, 32, 54);" d="M 208.44 407.175 L 247.036 407.921 L 246.419 400.608 C 246.419 400.608 213.96 400.247 203.449 400.247 C 206.589 405.404 208.44 407.175 208.44 407.175 Z"/>
          <path style="stroke: rgb(0, 0, 0); stroke-opacity: 0; fill: rgb(41, 32, 54);" d="M 228.901 421.548 L 263.673 421.548 L 262.99 414.451 C 262.99 414.451 227.065 414.101 215.432 414.101 C 221.986 418.675 228.901 421.548 228.901 421.548 Z"/>
        </g>
      </g>
      <g>
        <title>Rueda BR</title>
        <path d="M 236.676 369.229 C 236.676 371.925 232.345 405.083 200.817 419.738 C 190.556 424.508 164.269 424.648 151.585 424.648 C 122.247 424.648 98.463 400.864 98.463 371.526 C 98.463 342.188 122.25 318.858 151.585 318.404 C 158.502 318.297 183.736 317.404 189.685 317.404 C 202.844 317.404 236.676 343.035 236.676 369.229 Z" style="stroke: rgb(0, 0, 0); stroke-opacity: 0; fill: rgb(65, 49, 84);"/>
        <ellipse style="stroke: rgb(0, 0, 0); stroke-opacity: 0; fill: rgb(41, 32, 54);" cx="183.554" cy="371.526" rx="53.122" ry="53.122"/>
        <rect x="174.347" y="361.09" width="56.573" height="20.63" style="stroke: rgb(0, 0, 0); stroke-opacity: 0; fill: rgb(135, 132, 167);" rx="10.315" ry="10.315"/>
        <g transform="matrix(1, 0, 0, 1, -96.969011, -0.412469)">
          <title>Lineas Neumatico</title>
          <path style="stroke: rgb(0, 0, 0); stroke-opacity: 0; fill: rgb(41, 32, 54);" d="M 216.132 328.66 L 252.888 329.404 L 263.629 322.35 C 263.629 322.35 238.249 322.186 228.249 322.186 C 224.15 322.186 216.132 328.66 216.132 328.66 Z"/>
          <path style="stroke: rgb(0, 0, 0); stroke-opacity: 0; fill: rgb(41, 32, 54);" d="M 204.432 340.978 L 241.432 341.443 L 249.37 335.334 C 249.37 335.334 219.961 334.061 209.961 334.061 C 206.994 336.388 204.432 340.978 204.432 340.978 Z"/>
          <path style="stroke: rgb(0, 0, 0); stroke-opacity: 0; fill: rgb(41, 32, 54);" d="M 197.629 356.027 L 237.824 356.539 L 239.615 349.553 C 239.615 349.553 210.432 348.865 200.432 348.865 C 197.917 353.028 197.629 356.027 197.629 356.027 Z"/>
          <path style="stroke: rgb(0, 0, 0); stroke-opacity: 0; fill: rgb(41, 32, 54);" d="M 195.432 367.647 L 235.496 368.404 L 236.432 361.091 C 236.432 361.091 206.339 360.73 196.339 360.73 C 195.432 365.404 195.432 367.647 195.432 367.647 Z"/>
          <path style="stroke: rgb(0, 0, 0); stroke-opacity: 0; fill: rgb(41, 32, 54);" d="M 196.117 380.404 L 237.541 381.426 L 238.525 374.113 C 238.525 374.113 205.943 373.752 195.432 373.752 C 195.432 378.672 196.117 380.404 196.117 380.404 Z"/>
          <path style="stroke: rgb(0, 0, 0); stroke-opacity: 0; fill: rgb(41, 32, 54);" d="M 200.432 394.458 L 239.706 395.048 L 240.69 387.735 C 240.69 387.735 208.231 387.374 197.72 387.374 C 199.136 392.356 200.432 394.458 200.432 394.458 Z"/>
          <path style="stroke: rgb(0, 0, 0); stroke-opacity: 0; fill: rgb(41, 32, 54);" d="M 208.44 407.175 L 247.036 407.921 L 246.419 400.608 C 246.419 400.608 213.96 400.247 203.449 400.247 C 206.589 405.404 208.44 407.175 208.44 407.175 Z"/>
          <path style="stroke: rgb(0, 0, 0); stroke-opacity: 0; fill: rgb(41, 32, 54);" d="M 228.901 421.548 L 263.673 421.548 L 262.99 414.451 C 262.99 414.451 227.065 414.101 215.432 414.101 C 221.986 418.675 228.901 421.548 228.901 421.548 Z"/>
        </g>
      </g>
      <g style="">
        <title>Rueda BL</title>
        <path d="M 325.541 369.097 C 325.541 371.793 321.464 404.951 291.785 419.606 C 282.125 424.376 257.38 424.516 245.439 424.516 C 217.821 424.516 195.432 400.732 195.432 371.394 C 195.432 342.056 217.824 318.726 245.439 318.272 C 251.951 318.165 275.705 317.272 281.305 317.272 C 293.693 317.272 325.541 342.903 325.541 369.097 Z" style="stroke: rgb(0, 0, 0); stroke-opacity: 0; fill: rgb(65, 49, 84);"/>
        <ellipse style="stroke: rgb(0, 0, 0); stroke-opacity: 0; fill: rgb(41, 32, 54);" cx="277.919" cy="370.394" rx="47.621" ry="53.122"/>
        <path d="M 312.567 368.404 C 312.567 393.253 301.41 417.331 277.388 416.193 C 256.07 415.183 244.328 395.321 244.328 370.472 C 244.328 345.623 258.673 325.319 279.892 325.479 C 295.642 325.613 312.567 343.555 312.567 368.404 Z" style="stroke: rgb(0, 0, 0); stroke-opacity: 0; fill: rgb(215, 96, 59);"/>
        <ellipse style="stroke: rgb(0, 0, 0); stroke-opacity: 0; fill: rgb(244, 200, 102);" cx="272.869" cy="371.397" rx="28.541" ry="44.068"/>
        <g>
          <title>Lineas Neumatico</title>
          <path style="stroke: rgb(0, 0, 0); stroke-opacity: 0; fill: rgb(41, 32, 54);" d="M 216.132 328.66 L 252.888 329.404 L 263.629 322.35 C 263.629 322.35 238.249 322.186 228.249 322.186 C 224.15 322.186 216.132 328.66 216.132 328.66 Z"/>
          <path style="stroke: rgb(0, 0, 0); stroke-opacity: 0; fill: rgb(41, 32, 54);" d="M 204.432 340.978 L 241.432 341.443 L 249.37 335.334 C 249.37 335.334 219.961 334.061 209.961 334.061 C 206.994 336.388 204.432 340.978 204.432 340.978 Z"/>
          <path style="stroke: rgb(0, 0, 0); stroke-opacity: 0; fill: rgb(41, 32, 54);" d="M 197.629 356.027 L 237.824 356.539 L 239.615 349.553 C 239.615 349.553 210.432 348.865 200.432 348.865 C 197.917 353.028 197.629 356.027 197.629 356.027 Z"/>
          <path style="stroke: rgb(0, 0, 0); stroke-opacity: 0; fill: rgb(41, 32, 54);" d="M 195.432 367.647 L 235.496 368.404 L 236.432 361.091 C 236.432 361.091 206.339 360.73 196.339 360.73 C 195.432 365.404 195.432 367.647 195.432 367.647 Z"/>
          <path style="stroke: rgb(0, 0, 0); stroke-opacity: 0; fill: rgb(41, 32, 54);" d="M 196.117 380.404 L 237.541 381.426 L 238.525 374.113 C 238.525 374.113 205.943 373.752 195.432 373.752 C 195.432 378.672 196.117 380.404 196.117 380.404 Z"/>
          <path style="stroke: rgb(0, 0, 0); stroke-opacity: 0; fill: rgb(41, 32, 54);" d="M 200.432 394.458 L 239.706 395.048 L 240.69 387.735 C 240.69 387.735 208.231 387.374 197.72 387.374 C 199.136 392.356 200.432 394.458 200.432 394.458 Z"/>
          <path style="stroke: rgb(0, 0, 0); stroke-opacity: 0; fill: rgb(41, 32, 54);" d="M 208.44 407.175 L 247.036 407.921 L 246.419 400.608 C 246.419 400.608 213.96 400.247 203.449 400.247 C 206.589 405.404 208.44 407.175 208.44 407.175 Z"/>
          <path style="stroke: rgb(0, 0, 0); stroke-opacity: 0; fill: rgb(41, 32, 54);" d="M 228.901 421.548 L 263.673 421.548 L 262.99 414.451 C 262.99 414.451 227.065 414.101 215.432 414.101 C 221.986 418.675 228.901 421.548 228.901 421.548 Z"/>
        </g>
        <g>
          <title>Puntos Llanta</title>
          <g fill="#D36D33" fill-opacity="1.00" stroke="None" transform="matrix(1, 0, 0, 1, -277.568091, -66.595911)">
            <path d="&#10;M 552.00 402.00 &#10;C 546.22 401.04 545.08 410.28 549.32 412.66 C 554.61 413.78 555.49 404.73 552.00 402.00 Z" style="fill-opacity: 0.43;"/>
          </g>
          <g fill="#D36D34" fill-opacity="1.00" stroke="None" transform="matrix(1, 0, 0, 1, -277.568091, -66.595911)">
            <path d="&#10;M 538.00 411.00 &#10;C 532.22 410.04 531.08 419.28 535.32 421.66 C 540.61 422.78 541.49 413.73 538.00 411.00 Z" style="fill-opacity: 0.43;"/>
          </g>
          <g fill="#D36E32" fill-opacity="1.00" stroke="None" transform="matrix(1, 0, 0, 1, -277.568091, -66.595911)">
            <path d="&#10;M 566.00 411.00 &#10;C 560.22 410.04 559.08 419.28 563.32 421.66 C 569.02 422.95 569.40 413.78 566.00 411.00 Z" style="fill-opacity: 0.43;"/>
          </g>
          <g fill="#D26630" fill-opacity="1.00" stroke="None" transform="matrix(1, 0, 0, 1, -277.568091, -66.595911)">
            <path d="&#10;M 532.00 433.00 &#10;C 526.97 432.09 524.99 440.53 529.32 442.66 C 534.27 443.90 535.51 435.53 532.00 433.00 Z" style="fill-opacity: 0.43;"/>
          </g>
          <g fill="#D0642F" fill-opacity="1.00" stroke="None" transform="matrix(1, 0, 0, 1, -277.568091, -66.595911)">
            <path d="&#10;M 572.00 433.00 &#10;C 567.28 432.06 565.11 439.84 568.78 442.22 C 574.11 445.25 573.87 435.76 572.00 433.00 Z" style="fill-opacity: 0.43;"/>
          </g>
          <g fill="#D36530" fill-opacity="1.00" stroke="None" transform="matrix(1, 0, 0, 1, -277.568091, -66.595911)">
            <path d="&#10;M 538.00 455.00 &#10;C 532.61 453.97 531.01 462.45 535.32 464.66 C 540.55 465.80 540.96 457.83 538.00 455.00 Z" style="fill-opacity: 0.43;"/>
          </g>
          <g fill="#D1682F" fill-opacity="1.00" stroke="None" transform="matrix(1, 0, 0, 1, -277.568091, -66.595911)">
            <path d="&#10;M 566.00 455.00 &#10;C 560.61 453.97 559.01 462.45 563.32 464.66 C 568.66 466.04 569.47 457.60 566.00 455.00 Z" style="fill-opacity: 0.43;"/>
          </g>
          <g fill="#D36732" fill-opacity="1.00" stroke="None" transform="matrix(1, 0, 0, 1, -277.568091, -66.595911)">
            <path d="&#10;M 552.00 464.00 &#10;C 545.95 462.09 545.23 471.41 549.32 473.66 C 554.55 474.80 554.96 466.83 552.00 464.00 Z" style="fill-opacity: 0.43;"/>
          </g>
          <g fill="#D76332" fill-opacity="1.00" stroke="None" transform="matrix(1, 0, 0, 1, -277.567999, -66.596002)">
            <path d="M 558.413 429.336 C 550.132 420.88 542.911 429.491 543.395 438.23 C 543.901 447.362 550.102 453.822 558.181 444.973 C 552.649 445.598 552.489 440.646 552.489 438.223 C 552.489 435.8 552.937 429.588 558.413 429.336 Z" style="fill-opacity: 0.43; stroke-opacity: 0;"/>
          </g>
        </g>
      </g>
      <g style="" transform="matrix(1, 0, 0, 1, -166.850773, 1.132111)">
        <title>Rueda FL</title>
        <path d="M 325.541 369.097 C 325.541 371.793 321.464 404.951 291.785 419.606 C 282.125 424.376 257.38 424.516 245.439 424.516 C 217.821 424.516 195.432 400.732 195.432 371.394 C 195.432 342.056 217.824 318.726 245.439 318.272 C 251.951 318.165 275.705 317.272 281.305 317.272 C 293.693 317.272 325.541 342.903 325.541 369.097 Z" style="stroke: rgb(0, 0, 0); stroke-opacity: 0; fill: rgb(65, 49, 84);"/>
        <ellipse style="stroke: rgb(0, 0, 0); stroke-opacity: 0; fill: rgb(41, 32, 54);" cx="277.919" cy="370.394" rx="47.621" ry="53.122"/>
        <path d="M 312.567 368.404 C 312.567 393.253 301.41 417.331 277.388 416.193 C 256.07 415.183 244.328 395.321 244.328 370.472 C 244.328 345.623 258.673 325.319 279.892 325.479 C 295.642 325.613 312.567 343.555 312.567 368.404 Z" style="stroke: rgb(0, 0, 0); stroke-opacity: 0; fill: rgb(215, 96, 59);"/>
        <ellipse style="stroke: rgb(0, 0, 0); stroke-opacity: 0; fill: rgb(244, 200, 102);" cx="272.869" cy="371.397" rx="28.541" ry="44.068"/>
        <g>
          <title>Lineas Neumatico</title>
          <path style="stroke: rgb(0, 0, 0); stroke-opacity: 0; fill: rgb(41, 32, 54);" d="M 216.132 328.66 L 252.888 329.404 L 263.629 322.35 C 263.629 322.35 238.249 322.186 228.249 322.186 C 224.15 322.186 216.132 328.66 216.132 328.66 Z"/>
          <path style="stroke: rgb(0, 0, 0); stroke-opacity: 0; fill: rgb(41, 32, 54);" d="M 204.432 340.978 L 241.432 341.443 L 249.37 335.334 C 249.37 335.334 219.961 334.061 209.961 334.061 C 206.994 336.388 204.432 340.978 204.432 340.978 Z"/>
          <path style="stroke: rgb(0, 0, 0); stroke-opacity: 0; fill: rgb(41, 32, 54);" d="M 197.629 356.027 L 237.824 356.539 L 239.615 349.553 C 239.615 349.553 210.432 348.865 200.432 348.865 C 197.917 353.028 197.629 356.027 197.629 356.027 Z"/>
          <path style="stroke: rgb(0, 0, 0); stroke-opacity: 0; fill: rgb(41, 32, 54);" d="M 195.432 367.647 L 235.496 368.404 L 236.432 361.091 C 236.432 361.091 206.339 360.73 196.339 360.73 C 195.432 365.404 195.432 367.647 195.432 367.647 Z"/>
          <path style="stroke: rgb(0, 0, 0); stroke-opacity: 0; fill: rgb(41, 32, 54);" d="M 196.117 380.404 L 237.541 381.426 L 238.525 374.113 C 238.525 374.113 205.943 373.752 195.432 373.752 C 195.432 378.672 196.117 380.404 196.117 380.404 Z"/>
          <path style="stroke: rgb(0, 0, 0); stroke-opacity: 0; fill: rgb(41, 32, 54);" d="M 200.432 394.458 L 239.706 395.048 L 240.69 387.735 C 240.69 387.735 208.231 387.374 197.72 387.374 C 199.136 392.356 200.432 394.458 200.432 394.458 Z"/>
          <path style="stroke: rgb(0, 0, 0); stroke-opacity: 0; fill: rgb(41, 32, 54);" d="M 208.44 407.175 L 247.036 407.921 L 246.419 400.608 C 246.419 400.608 213.96 400.247 203.449 400.247 C 206.589 405.404 208.44 407.175 208.44 407.175 Z"/>
          <path style="stroke: rgb(0, 0, 0); stroke-opacity: 0; fill: rgb(41, 32, 54);" d="M 228.901 421.548 L 263.673 421.548 L 262.99 414.451 C 262.99 414.451 227.065 414.101 215.432 414.101 C 221.986 418.675 228.901 421.548 228.901 421.548 Z"/>
        </g>
        <g>
          <title>Puntos Llanta</title>
          <g fill="#D36D33" fill-opacity="1.00" stroke="None" transform="matrix(1, 0, 0, 1, -277.568091, -66.595911)">
            <path d="&#10;M 552.00 402.00 &#10;C 546.22 401.04 545.08 410.28 549.32 412.66 C 554.61 413.78 555.49 404.73 552.00 402.00 Z" style="fill-opacity: 0.43;"/>
          </g>
          <g fill="#D36D34" fill-opacity="1.00" stroke="None" transform="matrix(1, 0, 0, 1, -277.568091, -66.595911)">
            <path d="&#10;M 538.00 411.00 &#10;C 532.22 410.04 531.08 419.28 535.32 421.66 C 540.61 422.78 541.49 413.73 538.00 411.00 Z" style="fill-opacity: 0.43;"/>
          </g>
          <g fill="#D36E32" fill-opacity="1.00" stroke="None" transform="matrix(1, 0, 0, 1, -277.568091, -66.595911)">
            <path d="&#10;M 566.00 411.00 &#10;C 560.22 410.04 559.08 419.28 563.32 421.66 C 569.02 422.95 569.40 413.78 566.00 411.00 Z" style="fill-opacity: 0.43;"/>
          </g>
          <g fill="#D26630" fill-opacity="1.00" stroke="None" transform="matrix(1, 0, 0, 1, -277.568091, -66.595911)">
            <path d="&#10;M 532.00 433.00 &#10;C 526.97 432.09 524.99 440.53 529.32 442.66 C 534.27 443.90 535.51 435.53 532.00 433.00 Z" style="fill-opacity: 0.43;"/>
          </g>
          <g fill="#D0642F" fill-opacity="1.00" stroke="None" transform="matrix(1, 0, 0, 1, -277.568091, -66.595911)">
            <path d="&#10;M 572.00 433.00 &#10;C 567.28 432.06 565.11 439.84 568.78 442.22 C 574.11 445.25 573.87 435.76 572.00 433.00 Z" style="fill-opacity: 0.43;"/>
          </g>
          <g fill="#D36530" fill-opacity="1.00" stroke="None" transform="matrix(1, 0, 0, 1, -277.568091, -66.595911)">
            <path d="&#10;M 538.00 455.00 &#10;C 532.61 453.97 531.01 462.45 535.32 464.66 C 540.55 465.80 540.96 457.83 538.00 455.00 Z" style="fill-opacity: 0.43;"/>
          </g>
          <g fill="#D1682F" fill-opacity="1.00" stroke="None" transform="matrix(1, 0, 0, 1, -277.568091, -66.595911)">
            <path d="&#10;M 566.00 455.00 &#10;C 560.61 453.97 559.01 462.45 563.32 464.66 C 568.66 466.04 569.47 457.60 566.00 455.00 Z" style="fill-opacity: 0.43;"/>
          </g>
          <g fill="#D36732" fill-opacity="1.00" stroke="None" transform="matrix(1, 0, 0, 1, -277.568091, -66.595911)">
            <path d="&#10;M 552.00 464.00 &#10;C 545.95 462.09 545.23 471.41 549.32 473.66 C 554.55 474.80 554.96 466.83 552.00 464.00 Z" style="fill-opacity: 0.43;"/>
          </g>
          <g fill="#D76332" fill-opacity="1.00" stroke="None" transform="matrix(1, 0, 0, 1, -277.567999, -66.596002)">
            <path d="M 558.413 429.336 C 550.132 420.88 542.911 429.491 543.395 438.23 C 543.901 447.362 550.102 453.822 558.181 444.973 C 552.649 445.598 552.489 440.646 552.489 438.223 C 552.489 435.8 552.937 429.588 558.413 429.336 Z" style="fill-opacity: 0.43; stroke-opacity: 0;"/>
          </g>
        </g>
      </g>
    </g>
  </g>
</svg>